<?xml version="1.0" encoding="UTF-8" standalone="no"?>
<!DOCTYPE svg PUBLIC "-//W3C//DTD SVG 1.1//EN" "http://www.w3.org/Graphics/SVG/1.1/DTD/svg11.dtd">
<svg width="100%" height="100%" viewBox="0 0 768 768" version="1.1" xmlns="http://www.w3.org/2000/svg" xmlns:xlink="http://www.w3.org/1999/xlink" xml:space="preserve" xmlns:serif="http://www.serif.com/" style="fill-rule:evenodd;clip-rule:evenodd;stroke-linejoin:round;stroke-miterlimit:1.5;">
    <g transform="matrix(1.007183,-0.003373,-0.001557,0.974026,-1161.797185,-738.889185)">
        <path d="M1418.572,1356.8L1465.636,1256.987" style="fill:none;stroke:rgb(239,118,122);stroke-width:84.32px;"/>
    </g>
    <g transform="matrix(2.458244,0,0,2.458244,-3017.561242,-496.654698)">
        <circle cx="1321.824" cy="467.382" r="24.718" style="fill:rgb(101,100,219);"/>
    </g>
    <g transform="matrix(2.458244,0,0,2.458244,-2902.24898,-743.010543)">
        <circle cx="1321.824" cy="467.382" r="24.718" style="fill:rgb(239,118,122);"/>
    </g>
    <g transform="matrix(0.974876,0.137468,-0.040898,0.883936,-1061.163647,-819.374469)">
        <path d="M1372.511,1359.996L1381.344,1337.84C1381.344,1337.84 1402.49,1332.827 1424.61,1339.182C1452.649,1347.237 1459.683,1366.232 1459.683,1366.232L1452.263,1384.869C1437.155,1366.717 1415.005,1355.996 1389.862,1357.24C1383.952,1357.533 1378.149,1358.473 1372.511,1359.996Z" style="fill:rgb(184,96,99);"/>
    </g>
    <g transform="matrix(0.980821,0.085272,0.006309,0.884859,-1145.147373,-713.514193)">
        <path d="M1521.811,1210.073L1514.268,1229.028C1514.268,1229.028 1496.929,1236.18 1470.193,1225.799C1446.849,1216.735 1437.027,1197.732 1437.027,1197.732L1445.508,1176.42C1460.465,1198.724 1484.898,1212.375 1513.093,1210.98C1516.028,1210.835 1518.936,1210.53 1521.811,1210.073Z" style="fill:rgb(184,96,99);"/>
    </g>
    <g transform="matrix(1,0,0,0.859675,-1153.841141,-517.701649)">
        <path d="M1493.271,744.818C1643.14,750.791 1752.375,899.675 1750.782,1053.503C1748.413,1282.199 1611.165,1367.414 1469.731,1362.179" style="fill:none;stroke:rgb(101,100,219);stroke-width:89.37px;"/>
    </g>
    <g transform="matrix(2.458244,0,0,2.458244,-2997.720818,-1033.221913)">
        <circle cx="1321.824" cy="467.382" r="24.718" style="fill:rgb(101,100,219);"/>
    </g>
    <g transform="matrix(0.999353,0.035968,-0.030921,0.859119,-1127.648293,-570.856864)">
        <path d="M1472.338,696.445C1473.395,696.415 1474.448,696.385 1475.499,696.351C1485.682,696.022 1494.753,696.068 1501.884,696.608C1501.884,696.608 1512.035,718.482 1510.469,743.8C1508.043,783.046 1499.329,793.487 1499.329,793.487C1494.138,793.314 1480.696,793.376 1472.035,793.493C1479.024,779.053 1483.012,762.39 1483.012,744.652C1483.012,727.173 1479.14,710.737 1472.338,696.445Z" style="fill:rgb(74,74,159);"/>
    </g>
    <g transform="matrix(0.999616,0.027693,-0.023807,0.859345,-1114.960823,-641.950181)">
        <path d="M1452.595,1411.325C1459.417,1411.534 1467.058,1411.651 1475.089,1411.537C1475.089,1411.537 1486.958,1422.082 1486.958,1460.054C1486.958,1495.369 1476.199,1508.464 1476.199,1508.464C1467.678,1508.633 1459.628,1508.525 1452.504,1508.305C1459.417,1493.924 1463.359,1477.353 1463.359,1459.72C1463.359,1442.164 1459.452,1425.661 1452.595,1411.325Z" style="fill:rgb(74,74,159);"/>
    </g>
</svg>
