<?xml version="1.0" encoding="UTF-8" standalone="no"?>
<!DOCTYPE svg PUBLIC "-//W3C//DTD SVG 1.1//EN" "http://www.w3.org/Graphics/SVG/1.1/DTD/svg11.dtd">
<svg width="100%" height="100%" viewBox="0 0 1182 1182" version="1.1" xmlns="http://www.w3.org/2000/svg" xmlns:xlink="http://www.w3.org/1999/xlink" xml:space="preserve" xmlns:serif="http://www.serif.com/" style="fill-rule:evenodd;clip-rule:evenodd;stroke-linejoin:round;stroke-miterlimit:1.5;">
    <g transform="matrix(0.98355,0.043721,0.043721,0.883801,-987.429778,-448.144959)">
        <path d="M1377.596,1459.767L1507.679,1132.891" style="fill:none;stroke:rgb(239,118,122);stroke-width:85.15px;"/>
    </g>
    <g transform="matrix(0.98355,0.043721,0.043721,0.883801,-987.429778,-448.144959)">
        <path d="M1416.216,1475.414C1406.413,1500.047 1381.149,1513.035 1359.834,1504.398C1338.519,1495.762 1329.173,1468.752 1338.976,1444.119L1381.344,1337.84C1381.344,1337.84 1402.49,1332.827 1424.61,1339.182C1452.649,1347.237 1459.683,1366.232 1459.683,1366.232L1416.216,1475.414Z" style="fill:rgb(184,96,99);"/>
    </g>
    <g transform="matrix(0.98355,0.043721,0.043721,0.883801,-987.429778,-448.144959)">
        <path d="M1514.268,1229.028C1514.268,1229.028 1496.929,1236.18 1470.193,1225.799C1446.849,1216.735 1437.027,1197.732 1437.027,1197.732L1469.058,1117.243C1478.861,1092.61 1504.125,1079.623 1525.44,1088.259C1546.755,1096.895 1556.102,1123.905 1546.299,1148.538L1514.268,1229.028Z" style="fill:rgb(184,96,99);"/>
    </g>
    <g transform="matrix(2.458244,0,0,2.458244,-2695.649026,-546.427276)">
        <circle cx="1321.824" cy="467.382" r="29.803" style="fill:rgb(239,118,122);stroke:rgb(42,42,42);stroke-width:10.17px;"/>
    </g>
    <g transform="matrix(1,0,0,0.859675,-938.687939,-356.970622)">
        <path d="M1463.507,745.2C1467.987,745.016 1472.417,744.953 1476.79,744.796C1638.077,738.979 1759.879,910.812 1753.937,1086.535C1744.673,1360.523 1585.608,1448.753 1510.496,1457.799C1472.146,1462.417 1431.378,1458.511 1424.49,1458.511" style="fill:none;stroke:rgb(101,100,219);stroke-width:89.37px;"/>
    </g>
    <g transform="matrix(1,0,0,0.859675,-941.687939,-356.970622)">
        <path d="M1464.976,793.638C1441.993,794.581 1422.677,773.642 1421.866,746.908C1421.056,720.175 1439.057,697.705 1462.039,696.762C1466.578,696.576 1471.067,696.494 1475.499,696.351C1485.682,696.022 1494.753,696.068 1501.884,696.608C1501.884,696.608 1512.035,718.482 1510.469,743.8C1508.043,783.046 1499.329,793.487 1499.329,793.487C1492.181,793.248 1469.396,793.456 1464.976,793.638Z" style="fill:rgb(74,74,159);"/>
    </g>
    <g transform="matrix(1,0,0,0.859675,-938.687939,-356.970622)">
        <path d="M1475.089,1411.537C1475.089,1411.537 1486.958,1422.082 1486.958,1460.054C1486.958,1495.369 1476.199,1508.464 1476.199,1508.464C1450.636,1508.972 1429.322,1506.979 1424.49,1506.979C1401.494,1506.979 1382.823,1485.261 1382.823,1458.511C1382.823,1431.761 1401.494,1410.043 1424.49,1410.043C1424.554,1410.043 1424.621,1410.043 1424.691,1410.044C1429.784,1410.093 1450.628,1411.885 1475.089,1411.537Z" style="fill:rgb(74,74,159);"/>
    </g>
    <g transform="matrix(2.458244,0,0,2.458244,-2810.458485,-251.024097)">
        <circle cx="1321.824" cy="467.382" r="29.803" style="fill:rgb(101,100,219);stroke:rgb(42,42,42);stroke-width:10.17px;"/>
    </g>
    <g transform="matrix(2.458244,0,0,2.458244,-2793.804905,-865.750151)">
        <circle cx="1321.824" cy="467.382" r="29.803" style="fill:rgb(101,100,219);stroke:rgb(42,42,42);stroke-width:10.17px;"/>
    </g>
</svg>
